<svg xmlns="http://www.w3.org/2000/svg" viewBox="0 0 638.53 110.29"><defs><style>.cls-1{fill:#fff;}</style></defs><title>empowering</title><g id="Layer_2" data-name="Layer 2"><g id="Layer_1-2" data-name="Layer 1"><g id="Empower"><path id="Fill-1" class="cls-1" d="M0,0V82.37H51.85V74.92H8.28V43.16H47.71V35.71H8.28V7.45h42.2V0Z"/><path id="Fill-2" class="cls-1" d="M79.92,29.49a19.69,19.69,0,0,1,10.63-3,23.62,23.62,0,0,1,4.54.47,14.33,14.33,0,0,1,4.6,1.8,16.71,16.71,0,0,1,4.14,3.55,19.89,19.89,0,0,1,3.28,5.7,20.39,20.39,0,0,1,7.53-8.55,21,21,0,0,1,11.33-3q10.23,0,15.35,6.17T146.42,49V82.37h-7.82V52.24q0-8.61-3.16-13.85t-10.75-5.23a13.23,13.23,0,0,0-11.9,6.34A20.49,20.49,0,0,0,110.21,46a34.14,34.14,0,0,0-.8,7.44v29h-7.82V50.61a42,42,0,0,0-.58-7.22,15.16,15.16,0,0,0-2-5.52,9.45,9.45,0,0,0-4-3.49,14.84,14.84,0,0,0-6.44-1.22A13.4,13.4,0,0,0,83,34.44,14.52,14.52,0,0,0,78,38.34,20.15,20.15,0,0,0,74.34,45,29.24,29.24,0,0,0,73,54.45V82.37H65.14V39.9q0-2.2-.11-5.7c-.08-2.33-.2-4.42-.34-6.28h7.47c.16,1.48.27,3.11.35,4.89s.12,3.26.12,4.42h.23a18.39,18.39,0,0,1,7.07-7.74"/><path id="Fill-4" class="cls-1" d="M212.68,55.14a26.17,26.17,0,0,0-1.38-8.55,20.82,20.82,0,0,0-4-7A18.79,18.79,0,0,0,201,34.9a20.47,20.47,0,0,0-8.62-1.74,20.19,20.19,0,0,0-8.28,1.69,19.91,19.91,0,0,0-6.56,4.65,21.59,21.59,0,0,0-4.31,7,25,25,0,0,0,0,17.34,20.89,20.89,0,0,0,4.31,6.92A20.18,20.18,0,0,0,192.33,77,21,21,0,0,0,201,75.33a18.13,18.13,0,0,0,6.38-4.65,20.84,20.84,0,0,0,4-7,26.15,26.15,0,0,0,1.38-8.55Zm-40.13,55.14h-7.82V27.92h7.82v9.43h.35a21.42,21.42,0,0,1,8.91-8.09,25.5,25.5,0,0,1,11.33-2.73,28.63,28.63,0,0,1,11.44,2.21,26,26,0,0,1,8.74,6.05,27.41,27.41,0,0,1,5.64,9.07,32.67,32.67,0,0,1,0,22.57,27.41,27.41,0,0,1-5.64,9.07,26.06,26.06,0,0,1-8.74,6.05,28.63,28.63,0,0,1-11.44,2.21A25.46,25.46,0,0,1,181.81,81a21.92,21.92,0,0,1-8.91-7.85h-.35Z"/><path id="Fill-6" class="cls-1" d="M306.61,27.92l13,44.21h.23l14.49-44.21h7.59l14.72,44.21h.23l12.88-44.21H378L361,82.37h-8.51L338.11,38.28h-.23L323.74,82.37h-8.51l-17-54.45Z"/><path id="Fill-8" class="cls-1" d="M430,51a19.74,19.74,0,0,0-4.89-12.74q-4.54-5.06-12.94-5.06A18,18,0,0,0,405,34.61a19.15,19.15,0,0,0-5.86,4,19.63,19.63,0,0,0-4,5.7A18.64,18.64,0,0,0,393.37,51ZM438,53.52v1.74a17.46,17.46,0,0,1-.12,2H393.26a21.4,21.4,0,0,0,1.61,7.68A19.38,19.38,0,0,0,399,71.2a19.91,19.91,0,0,0,6.21,4.24,18.82,18.82,0,0,0,7.7,1.57,19,19,0,0,0,10.52-2.85,21.23,21.23,0,0,0,6.73-6.57L436,72.25a27.84,27.84,0,0,1-23.11,11.52,28.3,28.3,0,0,1-11.09-2.15,26,26,0,0,1-8.79-6,28.35,28.35,0,0,1-5.81-9.07,30,30,0,0,1-2.13-11.4,30.69,30.69,0,0,1,2.07-11.4,27.54,27.54,0,0,1,5.75-9.07,26.36,26.36,0,0,1,19.31-8.14,27.13,27.13,0,0,1,11.15,2.15,23,23,0,0,1,8,5.82A25.13,25.13,0,0,1,436.32,43,32.4,32.4,0,0,1,438,53.52Z"/><path id="Fill-10" class="cls-1" d="M452.92,34.21c-.08-2.33-.2-4.42-.34-6.28H460c.16,1.48.27,3.11.35,4.89s.12,3.26.12,4.42h.23A19,19,0,0,1,478,26.53c1,0,1.89,0,2.7.11a14.74,14.74,0,0,1,2.48.47l-1,7.56a14.57,14.57,0,0,0-2.3-.47A22.19,22.19,0,0,0,476.6,34a15.84,15.84,0,0,0-6,1.16,12.84,12.84,0,0,0-5,3.66,19.28,19.28,0,0,0-3.45,6.38,29.13,29.13,0,0,0-1.33,9.34V82.37H453V39.9c0-1.47,0-3.37-.11-5.7"/><path id="Fill-12" class="cls-1" d="M502.22,82.37h-7.82V27.92h7.82ZM503.84,7a5.18,5.18,0,0,1-1.73,4,5.36,5.36,0,0,1-7.59,0,5.18,5.18,0,0,1-1.73-4,5.19,5.19,0,0,1,1.73-4,5.37,5.37,0,0,1,7.59,0,5.19,5.19,0,0,1,1.73,4Z"/><path id="Fill-14" class="cls-1" d="M528,27.92c.16,1.47.27,3.11.34,4.89s.12,3.26.12,4.42h.23a17.81,17.81,0,0,1,7.47-7.73,21.59,21.59,0,0,1,10.92-3q10.23,0,15.35,6.17T567.51,49V82.37H559.7V52.24a40.39,40.39,0,0,0-.69-7.8,16.54,16.54,0,0,0-2.35-6,11.37,11.37,0,0,0-4.49-3.9,15.93,15.93,0,0,0-7.07-1.4,14.83,14.83,0,0,0-11.27,5.18A19.57,19.57,0,0,0,530.15,45a29.24,29.24,0,0,0-1.38,9.48V82.37h-7.82V39.9c0-1.47,0-3.37-.11-5.7s-.2-4.42-.35-6.28Z"/><path id="Fill-15" class="cls-1" d="M590.59,54.45A23.92,23.92,0,0,0,592,62.59a20.41,20.41,0,0,0,4,6.75,18.37,18.37,0,0,0,6.38,4.59,21,21,0,0,0,8.62,1.69,22.1,22.1,0,0,0,8.28-1.51,18.92,18.92,0,0,0,6.55-4.31,19.76,19.76,0,0,0,4.31-6.69,23.17,23.17,0,0,0,1.55-8.67,21.58,21.58,0,0,0-5.86-14.89,21.09,21.09,0,0,0-6.55-4.65,19.59,19.59,0,0,0-8.28-1.74,20.44,20.44,0,0,0-8.62,1.74,19.14,19.14,0,0,0-6.38,4.65,20.44,20.44,0,0,0-4,6.75,24,24,0,0,0-1.38,8.15ZM589.09,93.3a26.09,26.09,0,0,0,8.8,7.1,26.9,26.9,0,0,0,21.56,1.22,17,17,0,0,0,6.49-4.6,18.4,18.4,0,0,0,3.62-6.81,29.21,29.21,0,0,0,1.15-8.32V71.67h-.23a20.63,20.63,0,0,1-8.8,7.91,26,26,0,0,1-11.55,2.79,30,30,0,0,1-11.44-2.09,25.25,25.25,0,0,1-14.37-14.54,29.91,29.91,0,0,1-2-11.05,29.59,29.59,0,0,1,2-10.93,27.63,27.63,0,0,1,5.64-9,26,26,0,0,1,8.73-6.05,28.64,28.64,0,0,1,11.44-2.21,25.7,25.7,0,0,1,11.5,2.79,21.28,21.28,0,0,1,8.85,8h.23V27.92h7.82v54a40.3,40.3,0,0,1-1.2,9.43,23.91,23.91,0,0,1-4.49,9.19,25.36,25.36,0,0,1-8.91,7q-5.64,2.79-14.6,2.79a35.84,35.84,0,0,1-14.26-2.91,34.4,34.4,0,0,1-11.61-8Z"/><path id="Fill-29" class="cls-1" d="M259.19,84.3a29.91,29.91,0,0,1,0-59.83,29,29,0,0,1,12.67,2.88,3.36,3.36,0,0,1,1.57,4.46,3.29,3.29,0,0,1-4.4,1.59,22.56,22.56,0,0,0-9.84-2.24A23.12,23.12,0,1,0,280,44.65a3.36,3.36,0,0,1,1.61-4.44A3.28,3.28,0,0,1,286,41.85,30,30,0,0,1,259.19,84.3"/><path id="Fill-30" class="cls-1" d="M265.55,49.63a1.65,1.65,0,0,1-1.17-.49,1.69,1.69,0,0,1,0-2.37l23.28-23.55a1.64,1.64,0,0,1,2.34,0,1.69,1.69,0,0,1,0,2.37L266.72,49.14a1.65,1.65,0,0,1-1.17.49"/></g></g></g></svg>