<svg xmlns="http://www.w3.org/2000/svg" viewBox="0 0 716.85 110.29"><defs><style>.cls-1{fill:#fff;}</style></defs><title>entrepreneurs</title><g id="Layer_2" data-name="Layer 2"><g id="Layer_1-2" data-name="Layer 1"><path id="Fill-16" class="cls-1" d="M8.28,74.92H51.85v7.45H0V0H50.47V7.45H8.28V35.72H47.71v7.44H8.28Z"/><path id="Fill-17" class="cls-1" d="M72.15,27.92c.16,1.47.27,3.11.34,4.89s.12,3.26.12,4.42h.23a17.82,17.82,0,0,1,7.47-7.74,21.62,21.62,0,0,1,10.92-3q10.23,0,15.35,6.17T111.7,49V82.37h-7.82V52.24a40.41,40.41,0,0,0-.69-7.8,16.54,16.54,0,0,0-2.35-6,11.33,11.33,0,0,0-4.49-3.89,15.88,15.88,0,0,0-7.07-1.4A14.83,14.83,0,0,0,78,38.33,19.57,19.57,0,0,0,74.34,45,29.25,29.25,0,0,0,73,54.45V82.37H65.14V39.9c0-1.47,0-3.37-.11-5.7s-.2-4.42-.35-6.28Z"/><path id="Fill-18" class="cls-1" d="M155.06,34.56H139.88V66.32a18.25,18.25,0,0,0,.58,5,7.13,7.13,0,0,0,1.67,3.08,5.66,5.66,0,0,0,2.59,1.51,12.2,12.2,0,0,0,3.22.41,13.4,13.4,0,0,0,3.39-.47,17.05,17.05,0,0,0,3.39-1.28l.34,6.86a22.71,22.71,0,0,1-4.31,1.22,27.42,27.42,0,0,1-4.88.41,19.81,19.81,0,0,1-4.6-.58,11.56,11.56,0,0,1-4.48-2.21,12.1,12.1,0,0,1-3.4-4.42,17.29,17.29,0,0,1-1.32-7.33v-34H120.91V27.92h11.15V12.57h7.82V27.92h15.18Z"/><path id="Fill-19" class="cls-1" d="M166.83,34.21c-.08-2.33-.2-4.42-.34-6.28H174c.16,1.48.27,3.11.35,4.89s.12,3.26.12,4.42h.23a19,19,0,0,1,17.25-10.7q1.49,0,2.7.12a14.72,14.72,0,0,1,2.48.47l-1,7.56a15,15,0,0,0-2.3-.47,22.67,22.67,0,0,0-3.22-.23,15.84,15.84,0,0,0-6,1.16,12.84,12.84,0,0,0-5,3.66,19.28,19.28,0,0,0-3.45,6.38,29.13,29.13,0,0,0-1.33,9.35V82.37h-7.82V39.9c0-1.47,0-3.37-.11-5.7"/><path id="Fill-20" class="cls-1" d="M247.4,51a19.75,19.75,0,0,0-4.89-12.74q-4.54-5.05-12.94-5.06a18,18,0,0,0-7.24,1.45,19.15,19.15,0,0,0-5.86,4,19.65,19.65,0,0,0-4,5.7A18.64,18.64,0,0,0,210.72,51Zm7.93,2.56v1.74a17.46,17.46,0,0,1-.12,2H210.61a21.39,21.39,0,0,0,1.61,7.68,19.38,19.38,0,0,0,4.14,6.28,20,20,0,0,0,6.21,4.25,20.36,20.36,0,0,0,18.22-1.28,21.19,21.19,0,0,0,6.73-6.57l5.87,4.65a29.19,29.19,0,0,1-10.64,8.84,29.46,29.46,0,0,1-12.48,2.68,28.3,28.3,0,0,1-11.09-2.15,26,26,0,0,1-8.79-6,28.31,28.31,0,0,1-5.81-9.07,29.93,29.93,0,0,1-2.13-11.4,30.69,30.69,0,0,1,2.07-11.4,27.57,27.57,0,0,1,5.75-9.07,26.39,26.39,0,0,1,19.31-8.14,27.13,27.13,0,0,1,11.15,2.15,23,23,0,0,1,8,5.82A25.14,25.14,0,0,1,253.66,43a32.38,32.38,0,0,1,1.66,10.47Z"/><path id="Fill-21" class="cls-1" d="M318.48,55.15a26.15,26.15,0,0,0-1.38-8.55,20.84,20.84,0,0,0-4-7,18.79,18.79,0,0,0-6.38-4.71,20.47,20.47,0,0,0-8.62-1.74,20.13,20.13,0,0,0-8.28,1.69,19.9,19.9,0,0,0-6.56,4.65,21.59,21.59,0,0,0-4.31,7,25,25,0,0,0,0,17.34,20.9,20.9,0,0,0,4.31,6.92,20.34,20.34,0,0,0,6.56,4.59A20.13,20.13,0,0,0,298.13,77a21,21,0,0,0,8.62-1.69,18.13,18.13,0,0,0,6.38-4.65,20.86,20.86,0,0,0,4-7,26.17,26.17,0,0,0,1.38-8.55Zm-40.13,55.14h-7.82V27.92h7.82v9.43h.35a21.43,21.43,0,0,1,8.91-8.08,25.46,25.46,0,0,1,11.32-2.74,28.63,28.63,0,0,1,11.44,2.21,26.11,26.11,0,0,1,8.74,6.05,27.41,27.41,0,0,1,5.64,9.07,32.67,32.67,0,0,1,0,22.57,27.41,27.41,0,0,1-5.64,9.07,26,26,0,0,1-8.74,6.05,28.63,28.63,0,0,1-11.44,2.21A25.5,25.5,0,0,1,287.61,81a22,22,0,0,1-8.91-7.85h-.35Z"/><path id="Fill-22" class="cls-1" d="M341.69,34.21c-.08-2.33-.2-4.42-.34-6.28h7.47c.16,1.48.27,3.11.35,4.89s.12,3.26.12,4.42h.23a19,19,0,0,1,17.25-10.7q1.49,0,2.7.12a14.72,14.72,0,0,1,2.48.47l-1,7.56a15,15,0,0,0-2.3-.47,22.67,22.67,0,0,0-3.22-.23,15.84,15.84,0,0,0-6,1.16,12.84,12.84,0,0,0-5,3.66,19.28,19.28,0,0,0-3.45,6.38,29.14,29.14,0,0,0-1.33,9.35V82.37h-7.82V39.9c0-1.47,0-3.37-.11-5.7"/><path id="Fill-23" class="cls-1" d="M422.26,51a19.75,19.75,0,0,0-4.89-12.74q-4.54-5.05-12.94-5.06a18,18,0,0,0-7.24,1.45,19.15,19.15,0,0,0-5.86,4,19.65,19.65,0,0,0-4,5.7A18.64,18.64,0,0,0,385.58,51Zm7.93,2.56v1.74a17.46,17.46,0,0,1-.12,2H385.47a21.39,21.39,0,0,0,1.61,7.68,19.38,19.38,0,0,0,4.14,6.28,20,20,0,0,0,6.21,4.25,20.36,20.36,0,0,0,18.22-1.28,21.19,21.19,0,0,0,6.73-6.57l5.87,4.65a29.19,29.19,0,0,1-10.64,8.84,29.46,29.46,0,0,1-12.48,2.68A28.3,28.3,0,0,1,394,81.61a26,26,0,0,1-8.79-6,28.31,28.31,0,0,1-5.81-9.07,29.93,29.93,0,0,1-2.13-11.4,30.69,30.69,0,0,1,2.07-11.4,27.57,27.57,0,0,1,5.75-9.07,26.39,26.39,0,0,1,19.31-8.14,27.13,27.13,0,0,1,11.15,2.15,23,23,0,0,1,8,5.82A25.14,25.14,0,0,1,428.53,43a32.38,32.38,0,0,1,1.66,10.47Z"/><path id="Fill-24" class="cls-1" d="M452.25,27.92c.16,1.47.27,3.11.34,4.89s.12,3.26.12,4.42h.23a17.82,17.82,0,0,1,7.47-7.74,21.62,21.62,0,0,1,10.92-3q10.23,0,15.35,6.17T491.8,49V82.37H484V52.24a40.41,40.41,0,0,0-.69-7.8,16.54,16.54,0,0,0-2.35-6,11.33,11.33,0,0,0-4.49-3.89,15.88,15.88,0,0,0-7.07-1.4,14.83,14.83,0,0,0-11.27,5.18A19.57,19.57,0,0,0,454.44,45a29.25,29.25,0,0,0-1.38,9.48V82.37h-7.82V39.9c0-1.47,0-3.37-.11-5.7s-.2-4.42-.35-6.28Z"/><path id="Fill-25" class="cls-1" d="M551.55,51a19.75,19.75,0,0,0-4.89-12.74q-4.54-5.05-12.94-5.06a18,18,0,0,0-7.24,1.45,19.15,19.15,0,0,0-5.86,4,19.65,19.65,0,0,0-4,5.7A18.64,18.64,0,0,0,514.88,51Zm7.93,2.56v1.74a17.46,17.46,0,0,1-.12,2H514.76a21.39,21.39,0,0,0,1.61,7.68,19.38,19.38,0,0,0,4.14,6.28,20,20,0,0,0,6.21,4.25,20.36,20.36,0,0,0,18.22-1.28,21.19,21.19,0,0,0,6.73-6.57l5.87,4.65a29.19,29.19,0,0,1-10.64,8.84,29.47,29.47,0,0,1-12.48,2.68,28.3,28.3,0,0,1-11.09-2.15,26,26,0,0,1-8.79-6,28.31,28.31,0,0,1-5.81-9.07,29.93,29.93,0,0,1-2.13-11.4,30.69,30.69,0,0,1,2.07-11.4,27.57,27.57,0,0,1,5.75-9.07,26.39,26.39,0,0,1,19.31-8.14,27.13,27.13,0,0,1,11.15,2.15,23,23,0,0,1,8,5.82A25.14,25.14,0,0,1,557.82,43a32.38,32.38,0,0,1,1.66,10.47Z"/><path id="Fill-26" class="cls-1" d="M613.62,82.37q-.23-2.21-.34-4.89t-.12-4.42h-.23a17.83,17.83,0,0,1-7.47,7.73,21.59,21.59,0,0,1-10.92,3q-10.24,0-15.35-6.17t-5.12-16.28V27.92h7.82V58.05a40.39,40.39,0,0,0,.69,7.8,16.41,16.41,0,0,0,2.36,6,11.26,11.26,0,0,0,4.48,3.9,15.92,15.92,0,0,0,7.07,1.4A14.83,14.83,0,0,0,607.76,72a19.52,19.52,0,0,0,3.68-6.63,29.24,29.24,0,0,0,1.38-9.48V27.92h7.82V70.39q0,2.21.11,5.7t.35,6.28Z"/><path id="Fill-27" class="cls-1" d="M639.24,34.21c-.08-2.33-.2-4.42-.34-6.28h7.47c.16,1.48.27,3.11.35,4.89s.12,3.26.12,4.42h.23a19,19,0,0,1,17.25-10.7q1.49,0,2.7.12a14.72,14.72,0,0,1,2.48.47l-1,7.56a15,15,0,0,0-2.3-.47,22.66,22.66,0,0,0-3.22-.23,15.84,15.84,0,0,0-6,1.16,12.85,12.85,0,0,0-5,3.66,19.28,19.28,0,0,0-3.45,6.38,29.14,29.14,0,0,0-1.33,9.35V82.37h-7.82V39.9c0-1.47,0-3.37-.11-5.7"/><path id="Fill-28" class="cls-1" d="M710,40.84a13.84,13.84,0,0,0-5.23-5.52,15,15,0,0,0-8-2.15,18.74,18.74,0,0,0-4.14.47,11.07,11.07,0,0,0-3.68,1.51,8.16,8.16,0,0,0-2.59,2.68,7.31,7.31,0,0,0-1,3.83,6.6,6.6,0,0,0,3.1,5.88q3.1,2,9.77,3.43,9.54,2,14.09,5.76a12.58,12.58,0,0,1,4.54,10.18,16,16,0,0,1-1.78,7.85A15.67,15.67,0,0,1,710.41,80a18.63,18.63,0,0,1-6.49,2.91,31.07,31.07,0,0,1-7.3.87,28.79,28.79,0,0,1-11.84-2.56,21.94,21.94,0,0,1-9.43-8l6.21-4.65a17,17,0,0,0,6.09,6.05A16.74,16.74,0,0,0,696.5,77a24.31,24.31,0,0,0,4.83-.46,11,11,0,0,0,4-1.63,8.4,8.4,0,0,0,3.8-7.44A6.92,6.92,0,0,0,705.07,61a52.92,52.92,0,0,0-11.78-4c-1.61-.38-3.32-.87-5.12-1.46a17.43,17.43,0,0,1-5-2.56,13.84,13.84,0,0,1-3.79-4.25,12.49,12.49,0,0,1-1.49-6.4,14.81,14.81,0,0,1,1.61-7.16,14.21,14.21,0,0,1,4.31-4.88,19,19,0,0,1,6.15-2.85,27.15,27.15,0,0,1,7.13-.93A24.84,24.84,0,0,1,708,29.08a17.72,17.72,0,0,1,7.93,7.22Z"/></g></g></svg>